<svg width="32" height="32" viewBox="0 0 32 32" fill="none" xmlns="http://www.w3.org/2000/svg">
<path d="M23.636 17.36L18.668 21.3333H12.0013V20H17.4213C17.5419 19.9999 17.6602 19.9672 17.7636 19.9052C17.8671 19.8432 17.9518 19.7543 18.0087 19.648C18.0656 19.5417 18.0926 19.4219 18.0869 19.3015C18.0811 19.181 18.0428 19.0644 17.976 18.964L16.792 17.188C16.5491 16.8224 16.2195 16.5226 15.8326 16.3153C15.4457 16.108 15.0136 15.9997 14.5746 16H4.0013C3.64768 16 3.30854 16.1405 3.05849 16.3905C2.80844 16.6406 2.66797 16.9797 2.66797 17.3333V25.3333C2.66797 26.0406 2.94892 26.7189 3.44902 27.219C3.94911 27.719 4.62739 28 5.33464 28H18.1866C18.7568 28.0001 19.3204 27.8784 19.8396 27.6429C20.3589 27.4074 20.8218 27.0637 21.1973 26.6347L29.3346 17.3333L27.3986 16.688C26.7652 16.4769 26.089 16.4278 25.4318 16.5451C24.7745 16.6625 24.1571 16.9427 23.636 17.36ZM25.6786 9.85333C26.28 9.23333 26.652 8.376 26.652 7.42933C26.652 6.48267 26.28 5.62533 25.6786 5.00533C25.3745 4.68797 25.0094 4.43533 24.6053 4.26257C24.2011 4.08981 23.7662 4.0005 23.3266 4C23.3266 4 21.668 3.996 20.0013 5.71467C18.3346 3.996 16.676 4 16.676 4C16.2366 4.00056 15.8018 4.08976 15.3976 4.26228C14.9935 4.43479 14.6283 4.68706 14.324 5.004C13.7226 5.62533 13.3506 6.48133 13.3506 7.428C13.3506 8.37467 13.7226 9.23333 14.324 9.852L20.0013 16L25.6786 9.85333Z" fill="white"/>
</svg>
