<svg width="32" height="32" viewBox="0 0 32 32" fill="none" xmlns="http://www.w3.org/2000/svg">
<g clip-path="url(#clip0_1576_1670)">
<path d="M21.3346 26.6641V5.33073H5.33464V25.3307C5.33464 25.6843 5.47511 26.0235 5.72516 26.2735C5.97521 26.5236 6.31435 26.6641 6.66797 26.6641H21.3346ZM25.3346 29.3307H6.66797C5.6071 29.3307 4.58969 28.9093 3.83954 28.1592C3.0894 27.409 2.66797 26.3916 2.66797 25.3307V3.9974C2.66797 3.64377 2.80844 3.30464 3.05849 3.05459C3.30854 2.80454 3.64768 2.66406 4.0013 2.66406H22.668C23.0216 2.66406 23.3607 2.80454 23.6108 3.05459C23.8608 3.30464 24.0013 3.64377 24.0013 3.9974V13.3307H29.3346V25.3307C29.3346 26.3916 28.9132 27.409 28.1631 28.1592C27.4129 28.9093 26.3955 29.3307 25.3346 29.3307ZM24.0013 15.9974V25.3307C24.0013 25.6843 24.1418 26.0235 24.3918 26.2735C24.6419 26.5236 24.981 26.6641 25.3346 26.6641C25.6883 26.6641 26.0274 26.5236 26.2774 26.2735C26.5275 26.0235 26.668 25.6843 26.668 25.3307V15.9974H24.0013ZM8.0013 7.9974H16.0013V15.9974H8.0013V7.9974ZM10.668 10.6641V13.3307H13.3346V10.6641H10.668ZM8.0013 17.3307H18.668V19.9974H8.0013V17.3307ZM8.0013 21.3307H18.668V23.9974H8.0013V21.3307Z" fill="white"/>
</g>
<defs>
<clipPath id="clip0_1576_1670">
<rect width="32" height="32" fill="white"/>
</clipPath>
</defs>
</svg>
